<svg width="761" height="567" viewBox="0 0 761 567" fill="none" xmlns="http://www.w3.org/2000/svg">
<path d="M537.726 64.392H752.94C754.979 64.392 756.934 65.2018 758.375 66.6432C759.817 68.0846 760.626 70.0395 760.626 72.078V118.192C760.626 120.23 759.817 122.185 758.375 123.627C756.934 125.068 754.979 125.878 752.94 125.878H537.726C535.688 125.878 533.733 125.068 532.292 123.627C530.85 122.185 530.04 120.23 530.04 118.192V72.078C530.04 70.0395 530.85 68.0846 532.292 66.6432C533.733 65.2018 535.688 64.392 537.726 64.392Z" fill="#090814"/>
<path d="M537.727 66.314H752.939C754.468 66.314 755.935 66.9214 757.016 68.0025C758.097 69.0837 758.704 70.55 758.704 72.079V118.195C758.704 119.724 758.097 121.19 757.016 122.271C755.935 123.353 754.468 123.96 752.939 123.96H537.727C536.199 123.96 534.732 123.353 533.651 122.271C532.57 121.19 531.962 119.724 531.962 118.195V72.079C531.962 70.55 532.57 69.0837 533.651 68.0025C534.732 66.9214 536.199 66.314 537.727 66.314Z" fill="#F2F2F2"/>
<path d="M623.586 82.166H557.675C554.608 82.166 552.121 84.6536 552.121 87.721C552.121 90.7884 554.608 93.275 557.675 93.275H623.586C626.654 93.275 629.14 90.7874 629.14 87.72C629.14 84.6526 626.654 82.166 623.586 82.166Z" fill="#090814"/>
<path d="M700.096 81.686C701.237 81.686 702.351 82.0241 703.299 82.6576C704.247 83.291 704.986 84.1914 705.423 85.2448C705.859 86.2982 705.973 87.4574 705.751 88.5757C705.528 89.694 704.979 90.7212 704.173 91.5275C703.367 92.3337 702.339 92.8828 701.221 93.1052C700.103 93.3277 698.944 93.2135 697.89 92.7772C696.837 92.3408 695.937 91.6019 695.303 90.6539C694.67 89.7058 694.331 88.5912 694.331 87.451C694.331 85.922 694.939 84.4557 696.02 83.3745C697.101 82.2934 698.567 81.686 700.096 81.686Z" fill="#6C63FF"/>
<path d="M715.468 81.686C716.609 81.686 717.723 82.0241 718.671 82.6576C719.619 83.291 720.358 84.1914 720.795 85.2448C721.231 86.2982 721.345 87.4574 721.123 88.5757C720.9 89.694 720.351 90.7212 719.545 91.5275C718.739 92.3337 717.711 92.8828 716.593 93.1052C715.475 93.3277 714.316 93.2135 713.262 92.7772C712.209 92.3408 711.308 91.6019 710.675 90.6539C710.042 89.7058 709.703 88.5912 709.703 87.451C709.703 85.922 710.311 84.4557 711.392 83.3745C712.473 82.2934 713.939 81.686 715.468 81.686Z" fill="#6C63FF"/>
<path d="M730.841 81.686C731.982 81.686 733.096 82.0241 734.044 82.6576C734.992 83.291 735.731 84.1914 736.168 85.2448C736.604 86.2982 736.718 87.4574 736.496 88.5757C736.273 89.694 735.724 90.7212 734.918 91.5275C734.112 92.3337 733.084 92.8828 731.966 93.1052C730.848 93.3277 729.689 93.2135 728.635 92.7772C727.582 92.3408 726.682 91.6019 726.048 90.6539C725.415 89.7058 725.076 88.5912 725.076 87.451C725.076 85.922 725.684 84.4557 726.765 83.3745C727.846 82.2934 729.312 81.686 730.841 81.686Z" fill="#6C63FF"/>
<path d="M199.074 212.022L187.129 206.152L187.536 205.325L198.572 210.75L215.232 167.068L216.094 167.397L199.074 212.022Z" fill="black"/>
<path d="M406.95 188.878L407.269 189.744L424.964 183.226L424.645 182.36L406.95 188.878Z" fill="black"/>
<path d="M406.95 242.411L407.269 243.277L424.964 236.759L424.645 235.893L406.95 242.411Z" fill="black"/>
<path d="M406.95 299.637L407.269 300.503L424.964 293.985L424.645 293.119L406.95 299.637Z" fill="black"/>
<path d="M406.759 354.495L407.158 355.327L415.773 351.192L415.374 350.36L406.759 354.495Z" fill="black"/>
<path d="M537.726 124.426H752.94C754.979 124.426 756.934 125.236 758.375 126.677C759.817 128.119 760.626 130.074 760.626 132.112V178.226C760.626 180.264 759.817 182.219 758.375 183.661C756.934 185.102 754.979 185.912 752.94 185.912H537.726C535.688 185.912 533.733 185.102 532.292 183.661C530.85 182.219 530.04 180.264 530.04 178.226V132.112C530.04 130.074 530.85 128.119 532.292 126.677C533.733 125.236 535.688 124.426 537.726 124.426Z" fill="#090814"/>
<path d="M537.727 126.348H752.939C754.468 126.348 755.935 126.955 757.016 128.037C758.097 129.118 758.704 130.584 758.704 132.113V178.229C758.704 179.758 758.097 181.224 757.016 182.305C755.935 183.387 754.468 183.994 752.939 183.994H537.727C536.199 183.994 534.732 183.387 533.651 182.305C532.57 181.224 531.962 179.758 531.962 178.229V132.113C531.962 130.584 532.57 129.118 533.651 128.037C534.732 126.955 536.199 126.348 537.727 126.348Z" fill="#F2F2F2"/>
<path d="M623.412 141.952H558.142C554.972 141.952 552.401 144.523 552.401 147.694C552.401 150.865 554.972 153.435 558.142 153.435H623.412C626.583 153.435 629.153 150.864 629.153 147.693C629.153 144.522 626.583 141.952 623.412 141.952Z" fill="#090814"/>
<path d="M700.096 141.72C701.237 141.72 702.351 142.058 703.299 142.692C704.247 143.325 704.986 144.225 705.423 145.279C705.859 146.332 705.973 147.491 705.751 148.61C705.528 149.728 704.979 150.755 704.173 151.561C703.367 152.368 702.339 152.917 701.221 153.139C700.103 153.362 698.944 153.248 697.89 152.811C696.837 152.375 695.937 151.636 695.303 150.688C694.67 149.74 694.331 148.625 694.331 147.485C694.331 145.956 694.939 144.49 696.02 143.409C697.101 142.327 698.567 141.72 700.096 141.72Z" fill="#6C63FF"/>
<path d="M715.468 141.72C716.609 141.72 717.723 142.058 718.671 142.692C719.619 143.325 720.358 144.225 720.795 145.279C721.231 146.332 721.345 147.491 721.123 148.61C720.9 149.728 720.351 150.755 719.545 151.561C718.739 152.368 717.711 152.917 716.593 153.139C715.475 153.362 714.316 153.248 713.262 152.811C712.209 152.375 711.308 151.636 710.675 150.688C710.042 149.74 709.703 148.625 709.703 147.485C709.703 145.956 710.311 144.49 711.392 143.409C712.473 142.327 713.939 141.72 715.468 141.72Z" fill="#6C63FF"/>
<path d="M730.841 141.72C731.982 141.72 733.096 142.058 734.044 142.692C734.992 143.325 735.731 144.225 736.168 145.279C736.604 146.332 736.718 147.491 736.496 148.61C736.273 149.728 735.724 150.755 734.918 151.561C734.112 152.368 733.084 152.917 731.966 153.139C730.848 153.362 729.689 153.248 728.635 152.811C727.582 152.375 726.682 151.636 726.048 150.688C725.415 149.74 725.076 148.625 725.076 147.485C725.076 145.956 725.684 144.49 726.765 143.409C727.846 142.327 729.312 141.72 730.841 141.72Z" fill="#6C63FF"/>
<path d="M537.726 184.715H752.94C754.979 184.715 756.934 185.525 758.375 186.966C759.817 188.408 760.626 190.363 760.626 192.401V238.515C760.626 240.553 759.817 242.508 758.375 243.95C756.934 245.391 754.979 246.201 752.94 246.201H537.726C535.688 246.201 533.733 245.391 532.292 243.95C530.85 242.508 530.04 240.553 530.04 238.515V192.401C530.04 190.363 530.85 188.408 532.292 186.966C533.733 185.525 535.688 184.715 537.726 184.715Z" fill="#090814"/>
<path d="M537.727 186.637H752.939C754.468 186.637 755.935 187.244 757.016 188.326C758.097 189.407 758.704 190.873 758.704 192.402V238.518C758.704 240.047 758.097 241.513 757.016 242.594C755.935 243.676 754.468 244.283 752.939 244.283H537.727C536.199 244.283 534.732 243.676 533.651 242.594C532.57 241.513 531.962 240.047 531.962 238.518V192.402C531.962 190.873 532.57 189.407 533.651 188.326C534.732 187.244 536.199 186.637 537.727 186.637Z" fill="#F2F2F2"/>
<path d="M623.412 202.241H558.142C554.972 202.241 552.401 204.812 552.401 207.983C552.401 211.154 554.972 213.724 558.142 213.724H623.412C626.583 213.724 629.153 211.153 629.153 207.982C629.153 204.811 626.583 202.241 623.412 202.241Z" fill="#090814"/>
<path d="M700.096 202.009C701.237 202.009 702.351 202.347 703.299 202.981C704.247 203.614 704.986 204.514 705.423 205.568C705.859 206.621 705.973 207.78 705.751 208.899C705.528 210.017 704.979 211.044 704.173 211.85C703.367 212.657 702.339 213.206 701.221 213.428C700.103 213.651 698.944 213.536 697.89 213.1C696.837 212.664 695.937 211.925 695.303 210.977C694.67 210.029 694.331 208.914 694.331 207.774C694.331 206.245 694.939 204.779 696.02 203.698C697.101 202.616 698.567 202.009 700.096 202.009Z" fill="#6C63FF"/>
<path d="M715.468 202.009C716.609 202.009 717.723 202.347 718.671 202.981C719.619 203.614 720.358 204.514 720.795 205.568C721.231 206.621 721.345 207.78 721.123 208.899C720.9 210.017 720.351 211.044 719.545 211.85C718.739 212.657 717.711 213.206 716.593 213.428C715.475 213.651 714.316 213.536 713.262 213.1C712.209 212.664 711.308 211.925 710.675 210.977C710.042 210.029 709.703 208.914 709.703 207.774C709.703 206.245 710.311 204.779 711.392 203.698C712.473 202.616 713.939 202.009 715.468 202.009Z" fill="#6C63FF"/>
<path d="M730.841 202.009C731.982 202.009 733.096 202.347 734.044 202.981C734.992 203.614 735.731 204.514 736.168 205.568C736.604 206.621 736.718 207.78 736.496 208.899C736.273 210.017 735.724 211.044 734.918 211.85C734.112 212.657 733.084 213.206 731.966 213.428C730.848 213.651 729.689 213.536 728.635 213.1C727.582 212.664 726.682 211.925 726.048 210.977C725.415 210.029 725.076 208.914 725.076 207.774C725.076 206.245 725.684 204.779 726.765 203.698C727.846 202.616 729.312 202.009 730.841 202.009Z" fill="#6C63FF"/>
<path d="M296.626 67.392H295.145V58.5H296.626V67.392ZM296.626 49.618H295.145V40.731H296.626V49.618ZM589.891 40.731H588.41V31.844H589.891V40.731ZM296.626 31.844H295.145V22.958H296.626V31.844ZM589.891 22.957H588.41V14.071H589.891V22.957ZM296.626 14.071H295.145V5.184H296.626V14.071ZM589.891 5.184H588.41V1.484H584.71V0H589.894L589.891 5.184ZM575.82 1.484H566.933V0H575.82V1.484ZM558.046 1.484H549.159V0H558.046V1.484ZM540.272 1.484H531.385V0H540.272V1.484ZM522.498 1.484H513.611V0H522.498V1.484ZM504.724 1.484H495.837V0H504.724V1.484ZM486.95 1.484H478.065V0H486.952L486.95 1.484ZM469.176 1.484H460.289V0H469.176V1.484ZM451.402 1.484H442.515V0H451.402V1.484ZM433.628 1.484H424.741V0H433.628V1.484ZM415.854 1.484H406.967V0H415.854V1.484ZM398.08 1.484H389.193V0H398.085L398.08 1.484ZM380.306 1.484H371.419V0H380.306V1.484ZM362.532 1.484H353.645V0H362.532V1.484ZM344.758 1.484H335.871V0H344.758V1.484ZM326.984 1.484H318.097V0H326.985L326.984 1.484ZM309.21 1.484H300.323V0H309.21V1.484Z" fill="#090814"/>
<path d="M589.891 330.139H586.929V328.658H588.41V322.734H589.891V330.139ZM578.042 330.139H569.153V328.658H578.04L578.042 330.139ZM560.268 330.139H551.381V328.658H560.268V330.139ZM542.494 330.139H533.607V328.658H542.494V330.139ZM524.72 330.139H515.833V328.658H524.72V330.139ZM506.946 330.139H498.059V328.658H506.946V330.139ZM489.172 330.139H480.285V328.658H489.172V330.139ZM471.398 330.139H462.513V328.658H471.4L471.398 330.139ZM589.889 313.847H588.408V304.96H589.889V313.847ZM589.889 296.073H588.408V287.186H589.889V296.073ZM589.889 278.299H588.408V269.412H589.889V278.299Z" fill="#090814"/>
<path d="M202.117 255.601C220.979 255.551 239.665 259.223 257.106 266.407C274.547 273.59 290.399 284.144 303.754 297.464C317.109 310.784 327.705 326.609 334.935 344.03C342.165 361.452 345.886 380.129 345.886 398.991C345.886 417.853 342.165 436.53 334.935 453.952C327.705 471.374 317.109 487.198 303.754 500.518C290.399 513.838 274.547 524.392 257.106 531.575C239.665 538.759 220.979 542.431 202.117 542.382C122.924 542.382 13.3245 463.865 58.7255 398.991C104.126 334.117 122.924 255.601 202.117 255.601Z" fill="#F2F2F2"/>
<path d="M394.035 262.423C393.416 262.423 392.823 262.669 392.386 263.106C391.949 263.543 391.703 264.136 391.703 264.755V339.365C391.715 339.975 391.966 340.555 392.402 340.982C392.838 341.409 393.424 341.648 394.034 341.648C394.644 341.648 395.23 341.409 395.666 340.982C396.102 340.555 396.353 339.975 396.366 339.365V264.755C396.365 264.136 396.119 263.544 395.682 263.107C395.245 262.669 394.653 262.423 394.035 262.423Z" fill="#3F3D56"/>
<path d="M2.3325 206.465C1.71418 206.465 1.12133 206.711 0.684111 207.148C0.246891 207.585 0.00102965 208.178 0.000500042 208.797V227.449C-0.0059254 227.759 0.0496297 228.067 0.163912 228.356C0.278195 228.644 0.448906 228.907 0.666043 229.129C0.883179 229.35 1.14237 229.526 1.42844 229.647C1.71451 229.767 2.02169 229.829 2.332 229.829C2.64231 229.829 2.94949 229.767 3.23556 229.647C3.52163 229.526 3.78082 229.35 3.99796 229.129C4.21509 228.907 4.3858 228.644 4.50009 228.356C4.61437 228.067 4.66993 227.759 4.6635 227.449V208.796C4.66271 208.178 4.41686 207.585 3.97989 207.148C3.54291 206.711 2.95048 206.465 2.3325 206.465Z" fill="#3F3D56"/>
<path d="M2.3325 239.281C1.71418 239.281 1.12133 239.527 0.684111 239.964C0.246891 240.401 0.00102965 240.994 0.000500042 241.613V277.752C-0.0059254 278.062 0.0496297 278.37 0.163912 278.659C0.278195 278.947 0.448906 279.21 0.666043 279.432C0.883179 279.653 1.14237 279.829 1.42844 279.95C1.71451 280.07 2.02169 280.132 2.332 280.132C2.64231 280.132 2.94949 280.07 3.23556 279.95C3.52163 279.829 3.78082 279.653 3.99796 279.432C4.21509 279.21 4.3858 278.947 4.50009 278.659C4.61437 278.37 4.66993 278.062 4.6635 277.752V241.612C4.66271 240.994 4.41686 240.401 3.97989 239.964C3.54291 239.527 2.95048 239.281 2.3325 239.281Z" fill="#3F3D56"/>
<path d="M2.3325 289.41C1.71418 289.41 1.12133 289.656 0.684111 290.093C0.246891 290.53 0.00102934 291.123 0.000499725 291.742V327.881C0.0131334 328.491 0.264322 329.071 0.700188 329.498C1.13605 329.925 1.72188 330.164 2.332 330.164C2.94212 330.164 3.52794 329.925 3.96381 329.498C4.39968 329.071 4.65087 328.491 4.6635 327.881V291.741C4.66271 291.123 4.41686 290.53 3.97989 290.093C3.54291 289.656 2.95048 289.41 2.3325 289.41Z" fill="#3F3D56"/>
<path d="M211.442 133.021C210.824 133.021 210.231 133.267 209.794 133.704C209.357 134.141 209.111 134.734 209.11 135.353V171.491C209.123 172.101 209.374 172.681 209.81 173.108C210.246 173.535 210.832 173.774 211.442 173.774C212.052 173.774 212.638 173.535 213.074 173.108C213.51 172.681 213.761 172.101 213.773 171.491V135.352C213.773 134.733 213.527 134.14 213.09 133.703C212.653 133.266 212.06 133.02 211.441 133.02L211.442 133.021Z" fill="#3F3D56"/>
<path d="M58.7215 389.326V386.994H139.421C142.792 386.99 146.024 385.649 148.407 383.265C150.79 380.882 152.131 377.65 152.134 374.28V319.718H154.47V374.28C154.466 378.269 152.88 382.093 150.059 384.914C147.239 387.734 143.414 389.321 139.425 389.326H58.7215Z" fill="#6C63FF"/>
<path d="M293.397 507.601H109.862V509.933H293.397V507.601Z" fill="#6C63FF"/>
<path d="M409.845 373.736H311.812C309.269 373.733 306.83 372.721 305.032 370.922C303.233 369.124 302.221 366.685 302.219 364.142V267.305C302.221 264.761 303.233 262.322 305.032 260.524C306.83 258.725 309.269 257.713 311.812 257.711H409.845C412.388 257.713 414.827 258.725 416.625 260.524C418.424 262.322 419.436 264.761 419.439 267.305V364.141C419.436 366.684 418.424 369.123 416.626 370.922C414.827 372.721 412.388 373.733 409.845 373.736Z" fill="#090814"/>
<path d="M330.069 260.569C323.44 260.569 317.083 263.202 312.396 267.889C307.71 272.575 305.077 278.932 305.077 285.561V362.087C305.077 363.241 305.304 364.384 305.746 365.45C306.187 366.517 306.835 367.486 307.651 368.302C308.467 369.118 309.436 369.766 310.503 370.207C311.569 370.649 312.712 370.877 313.867 370.877H373.811C385.154 370.877 396.032 366.371 404.053 358.35C412.074 350.329 416.579 339.451 416.579 328.108V269.359C416.579 268.204 416.352 267.061 415.91 265.995C415.469 264.928 414.821 263.959 414.005 263.143C413.189 262.327 412.22 261.679 411.153 261.238C410.087 260.796 408.944 260.569 407.79 260.569H330.069Z" fill="white"/>
<path d="M387.084 288.711H334.367C334.127 288.711 333.89 288.663 333.668 288.572C333.447 288.48 333.246 288.346 333.077 288.176C332.907 288.007 332.773 287.806 332.681 287.585C332.59 287.363 332.543 287.126 332.543 286.887C332.543 286.647 332.59 286.41 332.681 286.189C332.773 285.967 332.907 285.766 333.077 285.597C333.246 285.427 333.447 285.293 333.668 285.201C333.89 285.11 334.127 285.063 334.367 285.063H387.084C387.567 285.063 388.031 285.255 388.373 285.597C388.715 285.939 388.908 286.403 388.908 286.887C388.908 287.37 388.715 287.834 388.373 288.176C388.031 288.518 387.567 288.711 387.084 288.711Z" fill="#D6D6E3"/>
<path d="M387.084 327.605H334.367C333.883 327.605 333.419 327.412 333.077 327.07C332.735 326.728 332.543 326.264 332.543 325.781C332.543 325.297 332.735 324.833 333.077 324.491C333.419 324.149 333.883 323.957 334.367 323.957H387.084C387.567 323.957 388.031 324.149 388.373 324.491C388.715 324.833 388.908 325.297 388.908 325.781C388.908 326.264 388.715 326.728 388.373 327.07C388.031 327.412 387.567 327.605 387.084 327.605Z" fill="#D6D6E3"/>
<path d="M408.492 308.171H312.96C312.476 308.171 312.012 307.978 311.67 307.636C311.328 307.294 311.135 306.83 311.135 306.347C311.135 305.863 311.328 305.399 311.67 305.057C312.012 304.715 312.476 304.523 312.96 304.523H408.492C408.975 304.523 409.439 304.715 409.781 305.057C410.123 305.399 410.316 305.863 410.316 306.347C410.316 306.83 410.123 307.294 409.781 307.636C409.439 307.978 408.975 308.171 408.492 308.171Z" fill="#D6D6E3"/>
<path d="M409.467 343.42H374.956C374.472 343.42 374.008 343.227 373.666 342.885C373.324 342.543 373.132 342.079 373.132 341.596C373.132 341.112 373.324 340.648 373.666 340.306C374.008 339.964 374.472 339.772 374.956 339.772H409.467C409.95 339.772 410.414 339.964 410.756 340.306C411.098 340.648 411.291 341.112 411.291 341.596C411.291 342.079 411.098 342.543 410.756 342.885C410.414 343.227 409.95 343.42 409.467 343.42Z" fill="#D6D6E3"/>
<path d="M203.93 566.677H126.086C124.065 566.674 122.129 565.871 120.7 564.443C119.272 563.014 118.469 561.078 118.467 559.057V482.164C118.469 480.143 119.272 478.207 120.7 476.778C122.129 475.35 124.065 474.547 126.086 474.545H203.93C205.95 474.547 207.886 475.35 209.315 476.778C210.743 478.207 211.546 480.143 211.549 482.164V559.059C211.546 561.079 210.743 563.015 209.315 564.444C207.886 565.872 205.95 566.675 203.93 566.677V566.677Z" fill="#090814"/>
<path d="M140.583 476.815C135.319 476.815 130.271 478.905 126.549 482.627C122.827 486.349 120.737 491.397 120.737 496.661V557.427C120.737 558.344 120.917 559.252 121.268 560.099C121.619 560.945 122.133 561.715 122.781 562.363C123.429 563.011 124.199 563.525 125.045 563.876C125.892 564.227 126.8 564.408 127.717 564.408H175.316C184.324 564.408 192.962 560.829 199.331 554.46C205.7 548.091 209.279 539.453 209.279 530.446V483.796C209.279 481.944 208.543 480.169 207.234 478.86C205.925 477.551 204.15 476.816 202.299 476.816H140.583V476.815Z" fill="white"/>
<path d="M185.857 499.16H143.995C143.611 499.16 143.242 499.007 142.97 498.735C142.698 498.463 142.546 498.094 142.546 497.71C142.546 497.325 142.698 496.956 142.97 496.684C143.242 496.412 143.611 496.26 143.995 496.26H185.857C186.241 496.26 186.61 496.412 186.882 496.684C187.154 496.956 187.307 497.325 187.307 497.71C187.307 498.094 187.154 498.463 186.882 498.735C186.61 499.007 186.241 499.16 185.857 499.16Z" fill="#D6D6E3"/>
<path d="M185.857 530.045H143.995C143.611 530.045 143.242 529.892 142.97 529.62C142.698 529.348 142.546 528.979 142.546 528.595C142.546 528.21 142.698 527.841 142.97 527.569C143.242 527.297 143.611 527.145 143.995 527.145H185.857C186.241 527.145 186.61 527.297 186.882 527.569C187.154 527.841 187.307 528.21 187.307 528.595C187.307 528.979 187.154 529.348 186.882 529.62C186.61 529.892 186.241 530.045 185.857 530.045Z" fill="#D6D6E3"/>
<path d="M202.856 514.614H126.996C126.612 514.614 126.243 514.461 125.971 514.189C125.699 513.917 125.547 513.548 125.547 513.164C125.547 512.779 125.699 512.41 125.971 512.138C126.243 511.866 126.612 511.714 126.996 511.714H202.856C203.24 511.714 203.609 511.866 203.881 512.138C204.153 512.41 204.306 512.779 204.306 513.164C204.306 513.548 204.153 513.917 203.881 514.189C203.609 514.461 203.24 514.614 202.856 514.614Z" fill="#D6D6E3"/>
<path d="M203.631 542.603H176.23C175.846 542.603 175.477 542.45 175.205 542.178C174.933 541.906 174.781 541.537 174.781 541.153C174.781 540.768 174.933 540.399 175.205 540.127C175.477 539.855 175.846 539.703 176.23 539.703H203.631C204.015 539.703 204.384 539.855 204.656 540.127C204.928 540.399 205.081 540.768 205.081 541.153C205.081 541.537 204.928 541.906 204.656 542.178C204.384 542.45 204.015 542.603 203.631 542.603Z" fill="#D6D6E3"/>
<path d="M149.523 319.131H91.9535C90.4598 319.129 89.0279 318.535 87.9717 317.478C86.9155 316.422 86.3213 314.99 86.3195 313.497V256.63C86.3213 255.136 86.9155 253.704 87.9717 252.648C89.0279 251.592 90.4598 250.997 91.9535 250.996H149.523C151.016 250.997 152.448 251.592 153.504 252.648C154.56 253.704 155.155 255.136 155.157 256.63V313.497C155.155 314.99 154.56 316.422 153.504 317.478C152.448 318.535 151.016 319.129 149.523 319.131Z" fill="#090814"/>
<path d="M102.674 252.673C100.746 252.673 98.8369 253.052 97.0559 253.79C95.275 254.528 93.6568 255.609 92.2939 256.973C90.9309 258.336 89.8499 259.954 89.1126 261.736C88.3752 263.517 87.996 265.426 87.9965 267.354V312.293C87.9965 312.97 88.13 313.642 88.3894 314.268C88.6488 314.894 89.0291 315.463 89.5084 315.943C89.9878 316.422 90.5568 316.802 91.1831 317.062C91.8094 317.321 92.4806 317.455 93.1585 317.455H128.359C135.02 317.455 141.408 314.808 146.118 310.098C150.828 305.388 153.475 299 153.475 292.339V257.839C153.475 256.469 152.931 255.157 151.963 254.188C150.995 253.22 149.682 252.677 148.312 252.677H102.674V252.673Z" fill="white"/>
<path d="M136.156 269.199H105.197C104.913 269.199 104.641 269.086 104.44 268.885C104.239 268.684 104.126 268.412 104.126 268.128C104.126 267.843 104.239 267.571 104.44 267.37C104.641 267.169 104.913 267.057 105.197 267.057H136.156C136.44 267.057 136.712 267.169 136.913 267.37C137.114 267.571 137.227 267.843 137.227 268.128C137.227 268.412 137.114 268.684 136.913 268.885C136.712 269.086 136.44 269.199 136.156 269.199Z" fill="#D6D6E3"/>
<path d="M136.156 292.039H105.197C105.057 292.039 104.918 292.011 104.788 291.957C104.658 291.903 104.54 291.824 104.44 291.725C104.341 291.625 104.262 291.507 104.208 291.377C104.154 291.247 104.126 291.108 104.126 290.968C104.126 290.827 104.154 290.688 104.208 290.558C104.262 290.428 104.341 290.31 104.44 290.21C104.54 290.111 104.658 290.032 104.788 289.978C104.918 289.924 105.057 289.897 105.197 289.897H136.156C136.44 289.897 136.712 290.009 136.913 290.21C137.114 290.411 137.227 290.683 137.227 290.968C137.227 291.252 137.114 291.524 136.913 291.725C136.712 291.926 136.44 292.039 136.156 292.039Z" fill="#D6D6E3"/>
<path d="M148.729 280.625H92.6285C92.3445 280.625 92.072 280.512 91.8712 280.311C91.6703 280.11 91.5575 279.838 91.5575 279.554C91.5575 279.269 91.6703 278.997 91.8712 278.796C92.072 278.595 92.3445 278.483 92.6285 278.483H148.729C149.013 278.483 149.285 278.595 149.486 278.796C149.687 278.997 149.799 279.269 149.799 279.554C149.799 279.838 149.687 280.11 149.486 280.311C149.285 280.512 149.013 280.625 148.729 280.625Z" fill="#D6D6E3"/>
<path d="M149.301 301.327H129.035C128.75 301.327 128.478 301.214 128.277 301.013C128.076 300.812 127.964 300.54 127.964 300.256C127.964 299.971 128.076 299.699 128.277 299.498C128.478 299.297 128.75 299.185 129.035 299.185H149.301C149.586 299.185 149.858 299.297 150.059 299.498C150.26 299.699 150.372 299.971 150.372 300.256C150.372 300.54 150.26 300.812 150.059 301.013C149.858 301.214 149.585 301.327 149.301 301.327Z" fill="#D6D6E3"/>
<path d="M304.996 384.816C314.009 384.816 321.316 377.508 321.316 368.495C321.316 359.481 314.009 352.174 304.996 352.174C295.982 352.174 288.674 359.481 288.674 368.495C288.674 377.508 295.982 384.816 304.996 384.816Z" fill="#6C63FF"/>
<path d="M153.156 331.378C159.594 331.378 164.814 326.158 164.814 319.72C164.814 313.281 159.594 308.062 153.156 308.062C146.717 308.062 141.497 313.281 141.497 319.72C141.497 326.158 146.717 331.378 153.156 331.378Z" fill="#6C63FF"/>
<path d="M209.109 490.3C216.835 490.3 223.099 484.036 223.099 476.311C223.099 468.585 216.835 462.322 209.109 462.322C201.384 462.322 195.12 468.585 195.12 476.311C195.12 484.036 201.384 490.3 209.109 490.3Z" fill="#6C63FF"/>
<path d="M234.292 167.843C242.317 167.843 248.821 161.475 248.821 153.62C248.821 145.764 242.317 139.397 234.292 139.397C226.268 139.397 219.763 145.764 219.763 153.62C219.763 161.475 226.268 167.843 234.292 167.843Z" fill="#D6D6E3"/>
<path d="M350.768 148.755H272.562C271.272 148.755 270.034 148.242 269.122 147.329C268.209 146.417 267.697 145.179 267.697 143.889C267.697 142.598 268.209 141.36 269.122 140.448C270.034 139.535 271.272 139.023 272.562 139.023H350.768C352.059 139.023 353.297 139.535 354.209 140.448C355.122 141.36 355.634 142.598 355.634 143.889C355.634 145.179 355.122 146.417 354.209 147.329C353.297 148.242 352.059 148.755 350.768 148.755Z" fill="#D6D6E3"/>
<path d="M411.802 165.224H272.562C271.272 165.224 270.034 164.711 269.122 163.798C268.209 162.886 267.697 161.648 267.697 160.358C267.697 159.067 268.209 157.829 269.122 156.917C270.034 156.004 271.272 155.492 272.562 155.492H411.802C413.092 155.492 414.33 156.004 415.242 156.917C416.155 157.829 416.668 159.067 416.668 160.358C416.668 161.648 416.155 162.886 415.242 163.798C414.33 164.711 413.092 165.224 411.802 165.224Z" fill="#D6D6E3"/>
<path d="M23.9895 227.622C29.1826 227.622 33.3925 223.5 33.3925 218.417C33.3925 213.333 29.1826 209.212 23.9895 209.212C18.7964 209.212 14.5865 213.333 14.5865 218.417C14.5865 223.5 18.7964 227.622 23.9895 227.622Z" fill="#6C63FF"/>
<path d="M99.3715 215.269H48.7575C47.9221 215.269 47.1209 214.937 46.5301 214.346C45.9394 213.755 45.6075 212.954 45.6075 212.119C45.6075 211.283 45.9394 210.482 46.5301 209.891C47.1209 209.3 47.9221 208.969 48.7575 208.969H99.3715C100.207 208.969 101.008 209.3 101.599 209.891C102.19 210.482 102.521 211.283 102.521 212.119C102.521 212.954 102.19 213.755 101.599 214.346C101.008 214.937 100.207 215.269 99.3715 215.269Z" fill="#6C63FF"/>
<path d="M138.87 225.926H48.7575C47.9221 225.926 47.1209 225.594 46.5301 225.003C45.9394 224.412 45.6075 223.611 45.6075 222.776C45.6075 221.94 45.9394 221.139 46.5301 220.548C47.1209 219.957 47.9221 219.626 48.7575 219.626H138.87C139.706 219.626 140.507 219.957 141.098 220.548C141.689 221.139 142.02 221.94 142.02 222.776C142.02 223.611 141.689 224.412 141.098 225.003C140.507 225.594 139.706 225.926 138.87 225.926Z" fill="#6C63FF"/>
<path d="M306.109 555.205C311.302 555.205 315.512 551.083 315.512 546C315.512 540.916 311.302 536.795 306.109 536.795C300.915 536.795 296.706 540.916 296.706 546C296.706 551.083 300.915 555.205 306.109 555.205Z" fill="#6C63FF"/>
<path d="M381.491 542.852H330.877C330.041 542.852 329.24 542.52 328.649 541.929C328.058 541.338 327.727 540.537 327.727 539.702C327.727 538.866 328.058 538.065 328.649 537.474C329.24 536.883 330.041 536.552 330.877 536.552H381.491C382.326 536.552 383.127 536.883 383.718 537.474C384.309 538.065 384.641 538.866 384.641 539.702C384.641 540.537 384.309 541.338 383.718 541.929C383.127 542.52 382.326 542.852 381.491 542.852Z" fill="#6C63FF"/>
<path d="M420.99 553.509H330.877C330.041 553.509 329.24 553.177 328.649 552.586C328.058 551.995 327.727 551.194 327.727 550.359C327.727 549.523 328.058 548.722 328.649 548.131C329.24 547.54 330.041 547.209 330.877 547.209H420.99C421.825 547.209 422.626 547.54 423.217 548.131C423.808 548.722 424.14 549.523 424.14 550.359C424.14 551.194 423.808 551.995 423.217 552.586C422.626 553.177 421.825 553.509 420.99 553.509Z" fill="#6C63FF"/>
<path d="M193.081 257.746H190.749V368.495H193.081V257.746Z" fill="#090814"/>
<path d="M191.916 375.491C195.779 375.491 198.911 372.359 198.911 368.496C198.911 364.632 195.779 361.501 191.916 361.501C188.052 361.501 184.921 364.632 184.921 368.496C184.921 372.359 188.052 375.491 191.916 375.491Z" fill="#090814"/>
<path d="M298 455.929C301.864 455.929 304.995 452.797 304.995 448.934C304.995 445.07 301.864 441.939 298 441.939C294.137 441.939 291.005 445.07 291.005 448.934C291.005 452.797 294.137 455.929 298 455.929Z" fill="#090814"/>
<path d="M109.145 360.336C113.008 360.336 116.14 357.204 116.14 353.341C116.14 349.477 113.008 346.346 109.145 346.346C105.281 346.346 102.15 349.477 102.15 353.341C102.15 357.204 105.281 360.336 109.145 360.336Z" fill="#090814"/>
<path d="M106.578 353.359L68.3085 354.508L68.3785 356.841L106.648 355.692L106.578 353.359Z" fill="#090814"/>
<path d="M354.904 475.711H296.904V448.933H299.236V473.379H354.909L354.904 475.711Z" fill="#090814"/>
<path d="M106.273 436.711C110.137 436.711 113.269 433.579 113.269 429.716C113.269 425.852 110.137 422.721 106.273 422.721C102.41 422.721 99.2785 425.852 99.2785 429.716C99.2785 433.579 102.41 436.711 106.273 436.711Z" fill="#090814"/>
<path d="M162.486 456.493H104.486V429.716H106.818V454.162H162.492L162.486 456.493Z" fill="#090814"/>
<path d="M339.969 403.101H61.3685V405.433H339.969V403.101Z" fill="#090814"/>
</svg>
